# xmcd
#
# Track frame offsets:
#        150
#        17232
#        45607
#
# Disc length: 685 seconds
#
# Revision: 0
# Processed by: cddbd v1.5.1PL0 Copyright (c) Steve Scherf et al.
# Submitted via: ExactAudioCopy v0.95a5
#
DISCID=1d02ab03
DTITLE=Blue - Guilty (Single)
DYEAR=2003
DGENRE=Dance
TTITLE0=Guilty
TTITLE1=Too Close
TTITLE2=03
EXTD=
EXTT0=
EXTT1=
EXTT2=
PLAYORDER=
